<svg width="24" height="24" viewBox="0 0 24 24" fill="none" xmlns="http://www.w3.org/2000/svg">
<mask id="mask0_5_26" style="mask-type:alpha" maskUnits="userSpaceOnUse" x="0" y="0" width="24" height="24">
<rect width="24" height="24" transform="matrix(-1 0 0 1 24 0)" fill="#D9D9D9"/>
</mask>
<g mask="url(#mask0_5_26)">
<path d="M16 10.8846C15.7552 10.8846 15.5465 10.7984 15.3741 10.626C15.2016 10.4535 15.1154 10.2449 15.1154 10C15.1154 9.75514 15.2016 9.54649 15.3741 9.37406C15.5465 9.20162 15.7552 9.11541 16 9.11541C16.2449 9.11541 16.4535 9.20162 16.626 9.37406C16.7984 9.54649 16.8846 9.75514 16.8846 10C16.8846 10.2449 16.7984 10.4535 16.626 10.626C16.4535 10.7984 16.2449 10.8846 16 10.8846ZM12 10.8846C11.7552 10.8846 11.5465 10.7984 11.3741 10.626C11.2016 10.4535 11.1154 10.2449 11.1154 10C11.1154 9.75514 11.2016 9.54649 11.3741 9.37406C11.5465 9.20162 11.7552 9.11541 12 9.11541C12.2449 9.11541 12.4535 9.20162 12.626 9.37406C12.7984 9.54649 12.8846 9.75514 12.8846 10C12.8846 10.2449 12.7984 10.4535 12.626 10.626C12.4535 10.7984 12.2449 10.8846 12 10.8846ZM8.00002 10.8846C7.75516 10.8846 7.5465 10.7984 7.37407 10.626C7.20164 10.4535 7.11542 10.2449 7.11542 10C7.11542 9.75514 7.20164 9.54649 7.37407 9.37406C7.5465 9.20162 7.75516 9.11541 8.00002 9.11541C8.24489 9.11541 8.45354 9.20162 8.62597 9.37406C8.79841 9.54649 8.88462 9.75514 8.88462 10C8.88462 10.2449 8.79841 10.4535 8.62597 10.626C8.45354 10.7984 8.24489 10.8846 8.00002 10.8846ZM21.5 21.0384V4.30773C21.5 3.8026 21.325 3.37503 20.975 3.02503C20.625 2.67503 20.1974 2.50003 19.6923 2.50003H4.30775C3.80262 2.50003 3.37505 2.67503 3.02505 3.02503C2.67505 3.37503 2.50005 3.8026 2.50005 4.30773V15.6923C2.50005 16.1974 2.67505 16.625 3.02505 16.975C3.37505 17.325 3.80262 17.5 4.30775 17.5H17.9615L21.5 21.0384ZM18.6 16H4.30775C4.23082 16 4.16029 15.968 4.09617 15.9039C4.03207 15.8397 4.00002 15.7692 4.00002 15.6923V4.30773C4.00002 4.2308 4.03207 4.16027 4.09617 4.09616C4.16029 4.03206 4.23082 4.00001 4.30775 4.00001H19.6923C19.7692 4.00001 19.8398 4.03206 19.9039 4.09616C19.968 4.16027 20 4.2308 20 4.30773V17.3846L18.6 16Z" fill="white"/>
</g>
</svg>
