<svg width="43" height="42" viewBox="0 0 43 42" fill="none" xmlns="http://www.w3.org/2000/svg">
<mask id="mask0_5_74" style="mask-type:alpha" maskUnits="userSpaceOnUse" x="0" y="0" width="43" height="42">
<rect x="0.5" width="42" height="42" fill="#D9D9D9"/>
</mask>
<g mask="url(#mask0_5_74)">
<path d="M21.5 21C19.575 21 17.9271 20.3146 16.5563 18.9438C15.1854 17.5729 14.5 15.925 14.5 14C14.5 12.075 15.1854 10.4271 16.5563 9.05625C17.9271 7.68542 19.575 7 21.5 7C23.425 7 25.0729 7.68542 26.4437 9.05625C27.8146 10.4271 28.5 12.075 28.5 14C28.5 15.925 27.8146 17.5729 26.4437 18.9438C25.0729 20.3146 23.425 21 21.5 21ZM7.5 35V30.1C7.5 29.1083 7.75521 28.1969 8.26562 27.3656C8.77604 26.5344 9.45417 25.9 10.3 25.4625C12.1083 24.5583 13.9458 23.8802 15.8125 23.4281C17.6792 22.976 19.575 22.75 21.5 22.75C23.425 22.75 25.3208 22.976 27.1875 23.4281C29.0542 23.8802 30.8917 24.5583 32.7 25.4625C33.5458 25.9 34.224 26.5344 34.7344 27.3656C35.2448 28.1969 35.5 29.1083 35.5 30.1V35H7.5ZM11 31.5H32V30.1C32 29.7792 31.9198 29.4875 31.7594 29.225C31.599 28.9625 31.3875 28.7583 31.125 28.6125C29.55 27.825 27.9604 27.2344 26.3563 26.8406C24.7521 26.4469 23.1333 26.25 21.5 26.25C19.8667 26.25 18.2479 26.4469 16.6437 26.8406C15.0396 27.2344 13.45 27.825 11.875 28.6125C11.6125 28.7583 11.401 28.9625 11.2406 29.225C11.0802 29.4875 11 29.7792 11 30.1V31.5ZM21.5 17.5C22.4625 17.5 23.2865 17.1573 23.9719 16.4719C24.6573 15.7865 25 14.9625 25 14C25 13.0375 24.6573 12.2135 23.9719 11.5281C23.2865 10.8427 22.4625 10.5 21.5 10.5C20.5375 10.5 19.7135 10.8427 19.0281 11.5281C18.3427 12.2135 18 13.0375 18 14C18 14.9625 18.3427 15.7865 19.0281 16.4719C19.7135 17.1573 20.5375 17.5 21.5 17.5Z" fill="white"/>
</g>
</svg>
