<svg width="28" height="28" viewBox="0 0 28 28" fill="none" xmlns="http://www.w3.org/2000/svg">
<mask id="mask0_32_33" style="mask-type:alpha" maskUnits="userSpaceOnUse" x="0" y="0" width="28" height="28">
<rect width="28" height="28" fill="#D9D9D9"/>
</mask>
<g mask="url(#mask0_32_33)">
<path d="M12.3667 18.496L20.2102 10.6525L18.9808 9.42315L12.3667 16.0373L9.04166 12.7123L7.81229 13.9416L12.3667 18.496ZM6.19237 23.9166C5.60301 23.9166 5.10416 23.7125 4.69583 23.3041C4.28749 22.8958 4.08333 22.397 4.08333 21.8076V6.19235C4.08333 5.60299 4.28749 5.10415 4.69583 4.69581C5.10416 4.28748 5.60301 4.08331 6.19237 4.08331H21.8076C22.397 4.08331 22.8958 4.28748 23.3042 4.69581C23.7125 5.10415 23.9167 5.60299 23.9167 6.19235V21.8076C23.9167 22.397 23.7125 22.8958 23.3042 23.3041C22.8958 23.7125 22.397 23.9166 21.8076 23.9166H6.19237Z" fill="#82DC28"/>
</g>
</svg>
