<svg width="28" height="28" viewBox="0 0 28 28" fill="none" xmlns="http://www.w3.org/2000/svg">
<mask id="mask0_32_15" style="mask-type:alpha" maskUnits="userSpaceOnUse" x="0" y="0" width="28" height="28">
<rect width="28" height="28" fill="#D9D9D9"/>
</mask>
<g mask="url(#mask0_32_15)">
<path d="M6.19237 23.9166C5.60301 23.9166 5.10416 23.7125 4.69583 23.3041C4.28749 22.8958 4.08333 22.397 4.08333 21.8076V6.19235C4.08333 5.60299 4.28749 5.10415 4.69583 4.69581C5.10416 4.28748 5.60301 4.08331 6.19237 4.08331H21.8076C22.397 4.08331 22.8958 4.28748 23.3042 4.69581C23.7125 5.10415 23.9167 5.60299 23.9167 6.19235V21.8076C23.9167 22.397 23.7125 22.8958 23.3042 23.3041C22.8958 23.7125 22.397 23.9166 21.8076 23.9166H6.19237ZM6.19237 22.1666H21.8076C21.8975 22.1666 21.9797 22.1292 22.0544 22.0544C22.1292 21.9797 22.1667 21.8974 22.1667 21.8076V6.19235C22.1667 6.10252 22.1292 6.02027 22.0544 5.9456C21.9797 5.87074 21.8975 5.83331 21.8076 5.83331H6.19237C6.10254 5.83331 6.02029 5.87074 5.94562 5.9456C5.87076 6.02027 5.83333 6.10252 5.83333 6.19235V21.8076C5.83333 21.8974 5.87076 21.9797 5.94562 22.0544C6.02029 22.1292 6.10254 22.1666 6.19237 22.1666Z" fill="#82DC28"/>
</g>
</svg>
