<svg width="16" height="16" viewBox="0 0 16 16" fill="none" xmlns="http://www.w3.org/2000/svg">
<mask id="mask0_3_39" style="mask-type:alpha" maskUnits="userSpaceOnUse" x="0" y="0" width="16" height="16">
<rect width="16" height="16" fill="#D9D9D9"/>
</mask>
<g mask="url(#mask0_3_39)">
<path d="M8 14.6667C7.07778 14.6667 6.21111 14.4917 5.4 14.1417C4.58889 13.7917 3.88334 13.3167 3.28334 12.7167C2.68334 12.1167 2.20834 11.4111 1.85834 10.6C1.50834 9.78889 1.33334 8.92222 1.33334 8C1.33334 7.07778 1.50834 6.21111 1.85834 5.4C2.20834 4.58889 2.68334 3.88334 3.28334 3.28334C3.88334 2.68334 4.58889 2.20834 5.4 1.85834C6.21111 1.50834 7.07778 1.33334 8 1.33334C8.92222 1.33334 9.78889 1.50834 10.6 1.85834C11.4111 2.20834 12.1167 2.68334 12.7167 3.28334C13.3167 3.88334 13.7917 4.58889 14.1417 5.4C14.4917 6.21111 14.6667 7.07778 14.6667 8C14.6667 8.92222 14.4917 9.78889 14.1417 10.6C13.7917 11.4111 13.3167 12.1167 12.7167 12.7167C12.1167 13.3167 11.4111 13.7917 10.6 14.1417C9.78889 14.4917 8.92222 14.6667 8 14.6667ZM8 13.3333C9.48889 13.3333 10.75 12.8167 11.7833 11.7833C12.8167 10.75 13.3333 9.48889 13.3333 8C13.3333 6.51111 12.8167 5.25 11.7833 4.21667C10.75 3.18334 9.48889 2.66667 8 2.66667C6.51111 2.66667 5.25 3.18334 4.21667 4.21667C3.18334 5.25 2.66667 6.51111 2.66667 8C2.66667 9.48889 3.18334 10.75 4.21667 11.7833C5.25 12.8167 6.51111 13.3333 8 13.3333Z" fill="#FF74D8"/>
</g>
</svg>
