<svg width="48" height="48" viewBox="0 0 48 48" fill="none" xmlns="http://www.w3.org/2000/svg">
<g clip-path="url(#clip0_123_7)">
<path d="M48 24C48 10.7451 37.2548 -7.99928e-06 24 -7.99928e-06C10.7452 -7.99928e-06 0 10.7451 0 24C0 35.9791 8.77645 45.908 20.25 47.7084V30.9375H14.1563V24H20.25V18.7125C20.25 12.6975 23.833 9.37499 29.3152 9.37499C31.941 9.37499 34.6875 9.84374 34.6875 9.84374V15.75H31.6612C28.6798 15.75 27.75 17.6 27.75 19.498V24H34.4063L33.3422 30.9375H27.75V47.7084C39.2235 45.908 48 35.9791 48 24Z" fill="#1877F2"/>
<path d="M33.3422 30.9375L34.4063 24H27.75V19.498C27.75 17.6 28.6798 15.75 31.6612 15.75H34.6875V9.84375C34.6875 9.84375 31.941 9.375 29.3152 9.375C23.833 9.375 20.25 12.6975 20.25 18.7125V24H14.1562V30.9375H20.25V47.7084C21.4719 47.9002 22.7243 48 24 48C25.2758 48 26.5281 47.9002 27.75 47.7084V30.9375H33.3422Z" fill="white"/>
</g>
<defs>
<clipPath id="clip0_123_7">
<rect width="48" height="48" fill="white"/>
</clipPath>
</defs>
</svg>
