<svg width="16" height="17" viewBox="0 0 16 17" fill="none" xmlns="http://www.w3.org/2000/svg">
<mask id="mask0_84_85" style="mask-type:alpha" maskUnits="userSpaceOnUse" x="0" y="0" width="16" height="17">
<rect y="0.0112305" width="16" height="16" fill="#D9D9D9"/>
</mask>
<g mask="url(#mask0_84_85)">
<path d="M8.00016 14.6779C7.07794 14.6779 6.21127 14.5029 5.40016 14.1529C4.58905 13.8029 3.8835 13.3279 3.2835 12.7279C2.6835 12.1279 2.2085 11.4223 1.8585 10.6112C1.5085 9.80012 1.3335 8.93345 1.3335 8.01123C1.3335 7.08901 1.5085 6.22234 1.8585 5.41123C2.2085 4.60012 2.6835 3.89457 3.2835 3.29457C3.8835 2.69457 4.58905 2.21957 5.40016 1.86957C6.21127 1.51957 7.07794 1.34457 8.00016 1.34457C8.92238 1.34457 9.78905 1.51957 10.6002 1.86957C11.4113 2.21957 12.1168 2.69457 12.7168 3.29457C13.3168 3.89457 13.7918 4.60012 14.1418 5.41123C14.4918 6.22234 14.6668 7.08901 14.6668 8.01123C14.6668 8.93345 14.4918 9.80012 14.1418 10.6112C13.7918 11.4223 13.3168 12.1279 12.7168 12.7279C12.1168 13.3279 11.4113 13.8029 10.6002 14.1529C9.78905 14.5029 8.92238 14.6779 8.00016 14.6779ZM8.00016 13.3446C9.48905 13.3446 10.7502 12.8279 11.7835 11.7946C12.8168 10.7612 13.3335 9.50012 13.3335 8.01123C13.3335 6.52234 12.8168 5.26123 11.7835 4.2279C10.7502 3.19457 9.48905 2.6779 8.00016 2.6779C6.51127 2.6779 5.25016 3.19457 4.21683 4.2279C3.1835 5.26123 2.66683 6.52234 2.66683 8.01123C2.66683 9.50012 3.1835 10.7612 4.21683 11.7946C5.25016 12.8279 6.51127 13.3446 8.00016 13.3446Z" fill="#1C1B1F"/>
</g>
</svg>
