<svg width="200" height="61" viewBox="0 0 200 61" fill="none" xmlns="http://www.w3.org/2000/svg">
<path d="M48.5183 26.6701C38.9954 21.0086 23.2877 20.4881 14.1969 23.2502C12.737 23.6934 11.1933 22.8684 10.751 21.407C10.3087 19.9449 11.1319 18.4005 12.5927 17.9562C23.0284 14.7847 40.3758 15.3975 51.3387 21.9124C52.6521 22.6925 53.0829 24.3902 52.3043 25.7029C51.5253 27.0172 49.8281 27.4505 48.5183 26.6701ZM48.2064 35.0558C47.5386 36.1413 46.1212 36.4813 45.0385 35.8153C37.0992 30.9297 24.9929 29.5144 15.6002 32.3686C14.3821 32.7371 13.0956 32.0496 12.7257 30.8324C12.3586 29.613 13.0457 28.3274 14.2616 27.9566C24.9915 24.6971 38.3301 26.2759 47.4487 31.8859C48.5313 32.5533 48.8721 33.9732 48.2064 35.0558ZM44.5915 43.1092C44.0609 43.9805 42.9271 44.2538 42.06 43.7227C35.1224 39.478 26.3905 38.5191 16.107 40.8708C15.1159 41.0983 14.1284 40.4764 13.9023 39.4846C13.6753 38.4926 14.2939 37.5041 15.2872 37.2778C26.5407 34.7022 36.194 35.8107 43.9809 40.5742C44.849 41.1049 45.1224 42.2405 44.5915 43.1092ZM31.043 0.450994C14.7273 0.450994 1.50024 13.692 1.50024 30.0259C1.50024 46.3612 14.7273 59.6019 31.043 59.6019C47.3594 59.6019 60.5857 46.3612 60.5857 30.0259C60.5857 13.692 47.3594 0.450994 31.043 0.450994Z" fill="#1ED760"/>
<path d="M81.8757 27.7542C76.7749 26.5364 75.8665 25.6816 75.8665 23.8862C75.8665 22.1893 77.4625 21.0478 79.8353 21.0478C82.1354 21.0478 84.4157 21.9148 86.8072 23.6998C86.8795 23.7538 86.9702 23.7753 87.0595 23.7612C87.1487 23.7478 87.2274 23.6991 87.28 23.6249L89.7706 20.1101C89.8729 19.9657 89.845 19.7658 89.707 19.6553C86.8612 17.3692 83.6566 16.2578 79.9108 16.2578C74.4032 16.2578 70.5562 19.5663 70.5562 24.3009C70.5562 29.3778 73.8748 31.1752 79.6095 32.5628C84.4905 33.6884 85.3143 34.6312 85.3143 36.3172C85.3143 38.185 83.6485 39.3463 80.9677 39.3463C77.9906 39.3463 75.5617 38.3422 72.845 35.9869C72.7776 35.929 72.6852 35.9022 72.5998 35.907C72.5102 35.9145 72.428 35.9561 72.3709 36.0249L69.5783 39.3522C69.4612 39.4903 69.476 39.6965 69.6111 39.8159C72.7723 42.6409 76.6596 44.1334 80.8548 44.1334C86.7896 44.1334 90.6246 40.8867 90.6246 35.8622C90.6246 31.6157 88.0903 29.2673 81.8757 27.7542Z" fill="#1ED760"/>
<path d="M108.36 33.4454C108.36 37.0312 106.154 39.5333 102.994 39.5333C99.8713 39.5333 97.5154 36.9175 97.5154 33.4454C97.5154 29.9739 99.8713 27.3577 102.994 27.3577C106.103 27.3577 108.36 29.9173 108.36 33.4454ZM104.052 22.718C101.479 22.718 99.3693 23.7323 97.6294 25.8107V23.4713C97.6294 23.2866 97.4798 23.1361 97.2953 23.1361H92.7283C92.5438 23.1361 92.3945 23.2866 92.3945 23.4713V49.4653C92.3945 49.65 92.5438 49.8004 92.7283 49.8004H97.2953C97.4798 49.8004 97.6294 49.65 97.6294 49.4653V41.2604C99.3696 43.2155 101.48 44.1705 104.052 44.1705C108.831 44.1705 113.67 40.4869 113.67 33.4454C113.67 26.4025 108.831 22.718 104.052 22.718Z" fill="#1ED760"/>
<path d="M126.073 39.5709C122.799 39.5709 120.331 36.9373 120.331 33.4455C120.331 29.939 122.714 27.3944 125.998 27.3944C129.293 27.3944 131.778 30.0279 131.778 33.522C131.778 37.0281 129.379 39.5709 126.073 39.5709ZM126.073 22.718C119.918 22.718 115.095 27.4633 115.095 33.522C115.095 39.515 119.885 44.2105 125.998 44.2105C132.175 44.2105 137.013 39.4812 137.013 33.4455C137.013 27.43 132.208 22.718 126.073 22.718Z" fill="#1ED760"/>
<path d="M150.158 23.1361H145.132V17.9919C145.132 17.8071 144.983 17.6571 144.798 17.6571H140.232C140.047 17.6571 139.896 17.8071 139.896 17.9919V23.1361H137.7C137.516 23.1361 137.368 23.2866 137.368 23.4713V27.4009C137.368 27.5855 137.516 27.7358 137.7 27.7358H139.896V37.9042C139.896 42.0134 141.939 44.0967 145.968 44.0967C147.607 44.0967 148.966 43.758 150.247 43.0308C150.351 42.9726 150.416 42.8603 150.416 42.7409V38.9988C150.416 38.8832 150.356 38.7745 150.257 38.7137C150.158 38.6513 150.034 38.6481 149.932 38.6986C149.052 39.1417 148.201 39.3463 147.251 39.3463C145.786 39.3463 145.132 38.6805 145.132 37.1877V27.7358H150.158C150.342 27.7358 150.491 27.5855 150.491 27.4009V23.4713C150.491 23.2866 150.342 23.1361 150.158 23.1361Z" fill="#1ED760"/>
<path d="M167.669 23.1563V22.5244C167.669 20.6657 168.38 19.8368 169.977 19.8368C170.929 19.8368 171.694 20.0261 172.551 20.3122C172.656 20.3454 172.766 20.3288 172.852 20.2656C172.94 20.2024 172.99 20.101 172.99 19.9936V16.1406C172.99 15.9933 172.895 15.863 172.754 15.8199C171.849 15.5504 170.691 15.2735 168.958 15.2735C164.739 15.2735 162.509 17.6518 162.509 22.1487V23.1164H160.315C160.131 23.1164 159.98 23.2665 159.98 23.4512V27.4009C159.98 27.5855 160.131 27.7358 160.315 27.7358H162.509V43.42C162.509 43.6048 162.658 43.7549 162.842 43.7549H167.409C167.594 43.7549 167.744 43.6048 167.744 43.42V27.7358H172.008L178.541 43.4159C177.799 45.0634 177.07 45.3912 176.074 45.3912C175.27 45.3912 174.422 45.1506 173.556 44.676C173.475 44.631 173.378 44.6237 173.29 44.6509C173.203 44.6819 173.13 44.7466 173.092 44.8317L171.544 48.2317C171.471 48.3923 171.534 48.581 171.688 48.6643C173.304 49.5405 174.763 49.9145 176.566 49.9145C179.938 49.9145 181.803 48.3415 183.446 44.1105L191.37 23.6126C191.409 23.5094 191.398 23.3932 191.335 23.3014C191.272 23.211 191.171 23.1563 191.06 23.1563H186.305C186.163 23.1563 186.035 23.2467 185.989 23.3805L181.118 37.3088L175.783 23.3713C175.734 23.2417 175.61 23.1563 175.471 23.1563H167.669Z" fill="#1ED760"/>
<path d="M157.517 23.1361H152.949C152.765 23.1361 152.615 23.2866 152.615 23.4713V43.42C152.615 43.6048 152.765 43.7549 152.949 43.7549H157.517C157.701 43.7549 157.851 43.6048 157.851 43.42V23.4713C157.851 23.2866 157.701 23.1361 157.517 23.1361Z" fill="#1ED760"/>
<path d="M155.256 14.053C153.447 14.053 151.979 15.5197 151.979 17.3307C151.979 19.1432 153.447 20.6113 155.256 20.6113C157.065 20.6113 158.532 19.1432 158.532 17.3307C158.532 15.5197 157.065 14.053 155.256 14.053Z" fill="#1ED760"/>
<path d="M195.456 25.1205H194.619V26.1888H195.456C195.874 26.1888 196.123 25.9842 196.123 25.6544C196.123 25.3068 195.874 25.1205 195.456 25.1205ZM195.999 26.6445L196.908 27.9189H196.141L195.323 26.75H194.619V27.9189H193.978V24.541H195.482C196.266 24.541 196.781 24.9426 196.781 25.6185C196.781 26.1721 196.462 26.5105 195.999 26.6445ZM195.286 23.4172C193.64 23.4172 192.394 24.7271 192.394 26.3318C192.394 27.9355 193.631 29.2281 195.269 29.2281C196.915 29.2281 198.162 27.9189 198.162 26.3135C198.162 24.7098 196.924 23.4172 195.286 23.4172ZM195.269 29.55C193.461 29.55 192.055 28.0966 192.055 26.3318C192.055 24.5668 193.48 23.0969 195.286 23.0969C197.093 23.0969 198.5 24.5502 198.5 26.3135C198.5 28.0785 197.076 29.55 195.269 29.55Z" fill="#1ED760"/>
</svg>
